# xmcd
#
# Track frame offsets: 
#        150
#        14909
#        31800
#        50744
#        71077
#        91966
#        107236
#        132841
#        154304
#        185268
#        214829
#        241539
#        263055
#        284211
#        302742
#
# Disc length: 4331 seconds
#
# Revision: 0
# Processed by: cddbd v1.5.2PL0 Copyright (c) Steve Scherf et al.
# Submitted via: ExactAudioCopy v0.95b4
#
DISCID=dd10e90f
DTITLE=Various Artist - Live Style
DYEAR=2008
DGENRE=Blues
TTITLE0=Rainy day in Manhatten
TTITLE1=Five
TTITLE2=Central Park
TTITLE3=Lexington Avenue
TTITLE4=Good Day
TTITLE5=NoLita
TTITLE6=Nostalgico
TTITLE7=Erotico
TTITLE8=Gelosia
TTITLE9=Atmosfera
TTITLE10=Cielo di Roma
TTITLE11=1on1
TTITLE12=Alligator Alley
TTITLE13=Let Your Spirit Fly
TTITLE14=Miami Sunrise
EXTD=
EXTT0=
EXTT1=
EXTT2=
EXTT3=
EXTT4=
EXTT5=
EXTT6=
EXTT7=
EXTT8=
EXTT9=
EXTT10=
EXTT11=
EXTT12=
EXTT13=
EXTT14=
PLAYORDER=
